<svg width="691" height="128" viewBox="0 0 691 128" fill="none" xmlns="http://www.w3.org/2000/svg">
<g clip-path="url(#clip0_1216_37)">
<mask id="mask0_1216_37" style="mask-type:alpha" maskUnits="userSpaceOnUse" x="0" y="4" width="121" height="120">
<circle cx="60.1196" cy="63.9963" r="59.8828" fill="#C4C4C4"/>
</mask>
<g mask="url(#mask0_1216_37)">
<path fill-rule="evenodd" clip-rule="evenodd" d="M120.226 4.0022H0.225586V124.002H120.226V4.0022ZM62.377 37.9903H67.9208V99.5661H80.3284V28.3546H62.311C44.1617 28.3546 34.592 37.7263 34.592 51.4538C34.592 62.4094 39.8058 68.8772 49.1115 75.5429L32.9421 99.6321H46.4056L64.423 72.705L58.1532 68.4812C50.5635 63.3334 46.8676 59.3075 46.8676 50.7278C46.8676 43.1381 52.2134 37.9903 62.377 37.9903Z" fill="black"/>
</g>
</g>
<mask id="mask1_1216_37" style="mask-type:luminance" maskUnits="userSpaceOnUse" x="146" y="4" width="120" height="120">
<path d="M206 124C239.137 124 266 97.1371 266 64C266 30.8629 239.137 4 206 4C172.863 4 146 30.8629 146 64C146 97.1371 172.863 124 206 124Z" fill="white"/>
</mask>
<g mask="url(#mask1_1216_37)">
<path d="M206 126.604C240.575 126.604 268.604 98.5752 268.604 64C268.604 29.4248 240.575 1.396 206 1.396C171.425 1.396 143.396 29.4248 143.396 64C143.396 98.5752 171.425 126.604 206 126.604Z" fill="black"/>
<path fill-rule="evenodd" clip-rule="evenodd" d="M206 126.204C240.354 126.204 268.204 98.3543 268.204 64C268.204 29.6457 240.354 1.796 206 1.796C171.646 1.796 143.796 29.6457 143.796 64C143.796 98.3543 171.646 126.204 206 126.204ZM268.604 64C268.604 98.5752 240.575 126.604 206 126.604C171.425 126.604 143.396 98.5752 143.396 64C143.396 29.4248 171.425 1.396 206 1.396C240.575 1.396 268.604 29.4248 268.604 64Z" fill="url(#paint0_linear_1216_37)"/>
<path d="M267.292 36.344H183.6C175 36.344 170.256 41.772 170.256 48.472C170.256 55.172 175.6 60.6 182.384 60.6H200.196C216.648 60.6 220.684 71.66 215.144 90.296L197.208 149.548" fill="black"/>
<path fill-rule="evenodd" clip-rule="evenodd" d="M167.713 33.7242C171.836 29.7228 177.449 27.7439 183.6 27.7439H267.292V44.9439H183.6C181.151 44.9439 180.092 45.679 179.692 46.0666C179.278 46.4687 178.856 47.1868 178.856 48.4719C178.856 50.4612 180.388 51.9999 182.384 51.9999H200.196C210.363 51.9999 219.419 55.61 223.713 64.8282C227.468 72.8916 226.304 82.9336 223.387 92.7465L223.381 92.767L205.439 152.04L188.977 147.056L206.9 87.8453C206.902 87.8387 206.904 87.832 206.906 87.8253C209.523 79.0149 209.11 74.2146 208.121 72.0906C207.669 71.1198 206.48 69.1999 200.196 69.1999H182.384C170.811 69.1999 161.656 59.8826 161.656 48.4719C161.656 43.057 163.605 37.7111 167.713 33.7242Z" fill="url(#paint1_linear_1216_37)"/>
</g>
<path d="M298.5 17.65H314.23V56.52H343.61V17.65H359.34V108H343.61V68.74H314.23V108H298.5V17.65ZM372.387 17.65H398.257C404.497 17.65 410 18.7333 414.767 20.9C419.533 22.98 423.26 26.0567 425.947 30.13C428.633 34.2033 429.977 39.0567 429.977 44.69C429.977 51.5367 428.157 57.04 424.517 61.2C420.963 65.2733 416.37 68.1767 410.737 69.91L432.837 108H415.807L395.787 73.29H388.117V108H372.387V17.65ZM396.827 61.07C402.373 61.07 406.663 59.6833 409.697 56.91C412.73 54.05 414.247 49.9767 414.247 44.69C414.247 39.49 412.817 35.72 409.957 33.38C407.097 31.04 402.85 29.87 397.217 29.87H388.117V61.07H396.827ZM462.813 29.87V17.65H521.443V29.87H499.993V108H484.263V29.87H462.813ZM566.909 103.58C564.656 105.14 561.709 106.483 558.069 107.61C554.429 108.737 550.139 109.3 545.199 109.3C535.319 109.3 527.693 106.527 522.319 100.98C516.946 95.3467 514.259 86.8533 514.259 75.5C514.259 68.9133 515.256 63.0633 517.249 57.95C519.329 52.75 522.406 48.6767 526.479 45.73C530.639 42.7833 535.839 41.31 542.079 41.31C547.279 41.31 551.786 42.35 555.599 44.43C559.413 46.51 562.359 49.8467 564.439 54.44C566.519 58.9467 567.559 65.0133 567.559 72.64V80.83H530.249C530.596 86.29 531.983 90.3633 534.409 93.05C536.836 95.7367 540.866 97.08 546.499 97.08C550.313 97.08 554.039 96.4733 557.679 95.26C561.406 94.0467 564.483 92.6167 566.909 90.97V103.58ZM541.819 53.53C534.539 53.53 530.683 58.8167 530.249 69.39H551.829V68.09C551.829 64.0167 551.093 60.5933 549.619 57.82C548.233 54.96 545.633 53.53 541.819 53.53ZM606.004 109.3C595.69 109.3 587.977 106.397 582.864 100.59C577.837 94.6967 575.324 86.29 575.324 75.37C575.324 68.6967 576.45 62.8033 578.704 57.69C580.957 52.5767 584.294 48.59 588.714 45.73C593.22 42.7833 598.767 41.31 605.354 41.31C609.167 41.31 612.46 41.6133 615.234 42.22C618.094 42.74 620.347 43.4767 621.994 44.43V57.56C620.434 56.6067 618.31 55.6967 615.624 54.83C612.937 53.9633 610.077 53.53 607.044 53.53C602.017 53.53 598.117 55.35 595.344 58.99C592.657 62.5433 591.314 67.8733 591.314 74.98C591.314 81.74 592.527 87.1133 594.954 91.1C597.38 95.0867 601.367 97.08 606.914 97.08C610.207 97.08 613.067 96.69 615.494 95.91C617.92 95.13 620.087 94.0467 621.994 92.66V105.27C618.267 107.957 612.937 109.3 606.004 109.3ZM647.857 61.07V108H632.387V17.65H647.857V48.07H648.637C650.197 46.51 652.407 45.0367 655.267 43.65C658.127 42.2633 661.853 41.57 666.447 41.57C672.773 41.57 677.323 43.0867 680.097 46.12C682.87 49.0667 684.257 53.79 684.257 60.29V108H668.787V61.85C668.787 56.9967 666.143 54.57 660.857 54.57C658.083 54.57 655.57 55.22 653.317 56.52C651.15 57.82 649.33 59.3367 647.857 61.07Z" fill="black"/>
<defs>
<linearGradient id="paint0_linear_1216_37" x1="206" y1="1.396" x2="206" y2="126.604" gradientUnits="userSpaceOnUse">
<stop stop-color="#9CDBFF"/>
<stop offset="0.25" stop-color="#95F4F4"/>
<stop offset="0.5" stop-color="#B6EBEB"/>
<stop offset="0.75" stop-color="#FFCCD8"/>
<stop offset="1" stop-color="#CCCCFF"/>
</linearGradient>
<linearGradient id="paint1_linear_1216_37" x1="230.4" y1="27.7439" x2="200" y2="142.8" gradientUnits="userSpaceOnUse">
<stop stop-color="#D2B4FA"/>
<stop offset="0.412027" stop-color="#88D5FF"/>
<stop offset="0.723831" stop-color="#C4EFFF"/>
<stop offset="1" stop-color="#D3FEDC"/>
</linearGradient>
<clipPath id="clip0_1216_37">
<rect width="120" height="120" fill="white" transform="translate(0 4)"/>
</clipPath>
</defs>
</svg>
